<?xml version="1.0" encoding="UTF-8"?>
<svg id="Layer_1" data-name="Layer 1" xmlns="http://www.w3.org/2000/svg" viewBox="0 0 124.72 70">
  <path d="m88.68,26.32c-3.32.08-6.89.17-10.88.33-2.66.08-5.07.33-7.39.75-.58,4.82-2.08,9.3-4.32,13.45-.91,1.74-1.99,3.4-3.07,4.9,2.66-.58,5.65-1.08,9.05-1.66.66-.08,1.25-.25,1.91-.33,8.8-1.83,19.35-4.9,21.84-5.65.66-.17,1.25.17,1.49.75.17.66-.17,1.33-.75,1.49-9.38,3.49-17.77,5.48-22.75,6.64-.58.08-1.08.25-1.58.33-.42.17-.91.25-1.25.33-.08.08-.17.08-.25.08-5.23,1.49-10.38,3.4-14.7,5.56-3.16,2.82-6.56,5.07-9.88,6.81-.66.75-1.25,1.58-1.66,2.41,8.39,3.07,32.22,9.8,53.14-2.08,13.7-7.81,22.84-21.92,27.07-41.93-7.39,7.22-17.19,7.47-36.04,7.81" fill="#718473"/>
  <path d="m55.05,51.07c.42-.25.75-.58,1.08-1,.58-.5,1.16-1.08,1.74-1.74.5-.5,1-1.08,1.41-1.66,1.83-2.08,3.4-4.32,4.73-6.89,1.99-3.65,3.32-7.64,3.99-11.87.17-.42.17-.83.17-1.25.17-.42.17-.83.17-1.25.91-7.72-.42-16.19-3.74-25.41-2.08,7.81-8.8,12.21-21.26,20.51-2.24,1.49-4.73,3.16-7.39,4.9-2.16,1.49-4.07,3.07-5.73,4.65.91,3.57,1.33,7.22,1.08,10.88-.17,2.91-.75,5.73-1.58,8.3,2.33-2.74,5.4-5.81,9.47-9.38.08-.08.08-.17.17-.25,5.4-4.98,11.87-12.29,13.78-14.45.42-.5,1.08-.5,1.58-.17.5.42.58,1.16.25,1.66-2.99,3.9-5.98,7.31-8.64,10.05-1.58,1.83-3.07,3.32-4.24,4.48-.66.66-1.16,1.25-1.58,1.66-6.56,7.31-12.12,15.69-11.79,21.34,3.49-.83,9.55-2.49,16.03-5.98,3.49-1.74,6.98-4.15,10.3-7.14" fill="#718473"/>
  <path d="m28.31,32.13c-.17-.5-.25-.91-.42-1.33-.08-.42-.17-.83-.33-1.25-1.83-5.9-5.48-11.71-10.79-17.35.66,6.23-2.74,11.63-8.89,21.51-1.16,1.83-2.41,3.82-3.74,6.06-6.06,9.88-5.48,18.35,1.74,25.91,0-4.07,1.49-9.13,4.98-16.86.17-.42.33-.83.58-1.33,1.99-5.15,4.07-11.54,4.65-13.78.17-.58.83-.91,1.49-.83.58.17.91.83.83,1.41-1.49,6.48-3.4,11.79-4.57,14.95-.25.66-.5,1.25-.66,1.74-2.33,7.31-3.57,15.03-1.66,19.02,2.66-2.08,7.39-6.06,11.29-11.79.25-.42.5-.83.75-1.25.25-.42.5-.83.75-1.25v-.08c2.41-4.24,4.32-9.13,4.65-14.86.17-2.91-.08-5.81-.66-8.64" fill="#718473"/>
</svg>